<svg width="51" height="51" viewBox="0 0 51 51" fill="none" xmlns="http://www.w3.org/2000/svg">
<g clip-path="url(#clip0_405_17)">
<rect x="0.986328" y="0.0639648" width="50" height="50" rx="2" fill="white"/>
<rect x="0.986328" y="0.0639648" width="50" height="50" rx="2" fill="#497CFF"/>
<path d="M3.38914 24.5843C1.73172 24.8676 0.149389 25.3533 -1.53816 25.3533L-1.28183 26.1223C-1.94454 27.4477 -1.60292 29.3937 -1.92266 30.8645C-2.44112 33.2494 -2.30627 35.9684 -2.56349 38.4121C-3.01277 42.6802 -3.79696 47.5962 -2.94799 51.8411C-2.69182 53.1219 -0.0316949 52.5246 1.05366 52.5246C2.9646 52.5246 5.28275 52.4361 7.17717 52.1401C10.5984 51.6056 14.1976 53.6401 17.6625 53.2936C25.642 52.4957 34.0064 51.8777 42.0284 52.5246C47.078 52.9319 52.3481 51.243 57.4185 51.243L57.9312 39.1953C57.9312 34.14 57.435 29.2644 56.9628 24.2425C56.9283 23.876 55.6332 16.521 55.1115 16.6949C53.852 17.1148 52.3394 17.0615 51.0102 17.2076C48.4545 17.4884 45.7879 17.7619 43.2632 18.2329C38.7878 19.0679 34.2374 19.5218 29.7345 20.2266C24.8108 20.9973 19.9012 21.821 14.9811 22.5906C11.0942 23.1986 7.25908 23.9228 3.38914 24.5843Z" fill="#E9D5B8" stroke="#E9D5B8" stroke-linecap="round"/>
<path d="M22.0385 -1.5636C23.3479 1.91139 25.2202 5.2308 26.8784 8.54719C29.1106 13.0116 31.4231 17.4353 33.6741 21.8901C35.0921 24.6964 36.4479 27.5536 37.8511 30.36" stroke="black" stroke-width="14" stroke-linecap="round"/>
<path d="M2.31326 25.4132C0.666569 25.7534 -0.898132 26.2931 -2.58468 26.3512L-2.30206 27.1109C-2.91882 28.4583 -2.51049 30.3914 -2.77947 31.8723C-3.21563 34.2736 -2.98737 36.9864 -3.16043 39.4375C-3.46269 43.7185 -4.07739 48.6586 -3.08298 52.8718C-2.78292 54.1431 0.450877 55.862 0.9398 53.4173C2.84962 53.3516 5.75913 55.5908 7.64226 55.2298C11.0431 54.578 14.7101 56.4876 18.161 56.0222C26.1084 54.9503 34.4466 54.0451 42.4861 54.4159C47.5467 54.6492 52.7556 52.7801 57.823 52.6058L57.3254 38.1403C57.1516 33.088 56.488 28.2324 55.8435 23.2297C55.7965 22.8645 54.2492 15.5585 53.7338 15.7502C52.4894 16.2131 50.976 16.2119 49.6525 16.4036C47.108 16.7721 44.4524 17.1371 41.9454 17.6947C37.5013 18.683 32.9692 19.2931 28.4932 20.1523C23.5989 21.0918 18.7206 22.0838 13.8298 23.0221C9.96615 23.7634 6.15817 24.619 2.31326 25.4132Z" stroke="white" stroke-width="5" stroke-linecap="round"/>
<path d="M9.0603 47.2297V47.6773" stroke="black" stroke-width="14" stroke-linecap="round"/>
<path d="M23.3809 38.8632H23.53" stroke="black" stroke-width="14" stroke-linecap="round"/>
<path d="M41.4319 47.6771H41.5811" stroke="black" stroke-width="14" stroke-linecap="round"/>
</g>
<defs>
<clipPath id="clip0_405_17">
<rect x="0.986328" y="0.0639648" width="50" height="50" rx="2" fill="white"/>
</clipPath>
</defs>
</svg>
