<svg width="51" height="51" viewBox="0 0 51 51" fill="none" xmlns="http://www.w3.org/2000/svg">
<g clip-path="url(#clip0_404_180)">
<rect x="0.986328" y="0.995972" width="50" height="50" rx="2" fill="white"/>
<rect x="0.986328" y="0.995972" width="50" height="50" rx="2" fill="#497CFF"/>
<path d="M21.05 26.7027C20.6132 27.1851 20.5505 28.3214 20.9968 28.8259C21.5795 29.4845 22.7166 29.4381 23.4946 29.3356C24.7702 29.1676 25.4866 28.5373 26.2015 27.4945C26.3402 27.292 26.4929 26.9185 26.5081 26.6698C26.5129 26.5913 26.4878 25.989 26.5286 26.0176C26.8573 26.2481 27.1625 26.6651 27.4762 26.9385C27.8637 27.2764 28.3419 27.4442 28.8546 27.4994C29.8713 27.6086 31.1245 27.6325 31.9944 27.027C32.694 26.54 33.5858 24.9047 32.3472 24.559" stroke="#371717" stroke-width="3" stroke-linecap="round"/>
<path d="M53.9267 29.9739C54.3926 31.2838 55.0849 32.6101 55.1156 34.0207V56.244L20.1345 62.3142C19.5575 58.8525 19.0335 55.3975 18.7513 51.8828C18.5492 49.3657 18.2615 46.8631 18.0311 44.3493C17.9547 43.5163 17.5921 42.1711 18.0196 41.3771C18.2488 40.9515 18.672 40.8533 17.9968 40.6283C17.1886 40.3589 16.3923 40.0387 15.5847 39.7823C12.4658 38.7922 7.99402 36.2393 7.99402 32.4775C7.99402 31.3634 8.06908 30.4168 8.3484 29.3395C8.66195 28.13 9.38813 27.1057 9.94313 25.9957C10.7438 24.3943 11.8773 22.8033 12.9554 21.3658C13.6795 20.4004 13.455 18.9299 13.7099 17.7648C14.3055 15.0421 14.9175 12.3714 15.9734 9.77978C16.1796 9.27365 16.2891 8.80415 16.7164 9.37396C16.9953 9.74583 17.2768 10.1132 17.5624 10.4828C18.3398 11.489 19.1951 12.4376 19.9745 13.4436C20.255 13.8058 20.7184 14.5464 21.2205 14.3182C21.5705 14.1591 22.0276 14.0648 22.398 13.9638C23.5605 13.6468 24.7282 13.3615 25.9018 13.0835C27.3746 12.7347 28.901 12.4999 30.4002 12.289C31.126 12.187 31.8253 12.1061 32.5608 12.1061C32.7877 12.1061 33.1261 12.1933 33.281 11.9804C33.4283 11.7778 33.4794 11.366 33.6182 11.123C33.8518 10.7142 33.9855 10.2656 34.1784 9.83694C34.5993 8.9015 35.0955 8.00475 35.5159 7.07046C35.8391 6.35229 36.3639 5.49084 36.9277 4.92702C37.3704 4.48434 37.5406 4.84684 37.9337 5.08706C38.8815 5.66625 39.6728 6.82173 40.3515 7.67635C41.5265 9.15598 42.8573 10.5289 44.0554 11.9975C46.5237 15.0233 48.3207 18.4269 50.1542 21.8574C51.0855 23.5998 51.9789 25.3568 52.8521 27.1274C53.2993 28.0343 53.5883 29.0225 53.9267 29.9739Z" fill="#F4E2C8" stroke="#F4E2C8" stroke-width="3" stroke-linecap="round"/>
<path d="M19.62 22.292V23.4237" stroke="#371717" stroke-width="3" stroke-linecap="round"/>
<path d="M33.1423 19.9254V21.0572" stroke="#371717" stroke-width="3" stroke-linecap="round"/>
<path d="M22.2949 28.9794C23.0296 28.9794 23.5505 28.2755 23.9411 27.7448C24.7391 26.6607 25.397 25.2053 25.7359 23.8981C25.8327 23.5246 25.6114 22.9041 25.7473 23.3893C26.0907 24.6156 26.6686 25.5072 27.7707 26.1444C28.2545 26.4241 28.728 26.7227 29.2111 27.0018C29.4087 27.1159 29.7098 27.1094 29.8856 27.2533C30.2578 27.5578 30.3238 27.7359 30.52 28.2593C30.739 28.8431 30.804 29.5956 30.8287 30.2141C30.8694 31.2321 31.0258 32.2358 31.0402 33.2549C31.0629 34.866 31.1431 36.4713 31.1431 38.0848C31.1431 38.92 30.762 39.2003 29.9599 39.0451C29.355 38.928 28.9405 38.2732 28.6738 37.7762C28.312 37.1018 27.8839 36.5069 27.5878 35.7928C27.271 35.0287 27.1369 34.1236 26.9248 33.3235C26.6894 32.4357 26.4638 31.5309 26.3075 30.6256C26.1681 29.8189 26.0833 29.0077 25.9416 28.2021C25.8465 27.661 25.9428 27.0849 25.7416 26.5616C25.6786 26.3979 25.6026 26.0225 25.8673 26.2873C26.4222 26.8421 26.8234 27.599 27.2277 28.265C28.2356 29.925 28.8258 31.4794 29.0854 33.4035C29.1874 34.1595 29.2634 34.9129 29.3712 35.667C29.4162 35.9824 29.5796 36.8711 29.434 35.9814C29.2367 34.7756 28.8298 33.614 28.5709 32.4204C28.3599 31.4472 27.9736 30.4769 27.8507 29.4939" stroke="#371717" stroke-width="3" stroke-linecap="round"/>
</g>
<defs>
<clipPath id="clip0_404_180">
<rect x="0.986328" y="0.995972" width="50" height="50" rx="2" fill="white"/>
</clipPath>
</defs>
</svg>
