<svg width="51" height="51" viewBox="0 0 51 51" fill="none" xmlns="http://www.w3.org/2000/svg">
<g clip-path="url(#clip0_404_202)">
<rect x="0.986328" y="0.995972" width="50" height="50" rx="2" fill="white"/>
<rect x="0.986328" y="0.995972" width="50" height="50" rx="2" fill="#497CFF"/>
<path d="M28.8692 28.6575C28.4324 29.1399 28.3697 30.2762 28.8161 30.7807C29.3987 31.4393 30.5358 31.393 31.3138 31.2905C32.5894 31.1224 33.3059 30.4921 34.0207 29.4493C34.1594 29.2469 34.3121 28.8733 34.3274 28.6246C34.3322 28.5462 34.307 27.9438 34.3478 27.9725C34.6765 28.2029 34.9817 28.6199 35.2954 28.8934C35.6829 29.2313 36.1612 29.3991 36.6738 29.4542C37.6905 29.5635 38.9437 29.5874 39.8136 28.9818C40.5132 28.4948 41.405 26.8595 40.1665 26.5138" stroke="#371717" stroke-width="3" stroke-linecap="round"/>
<path d="M35.2386 39.9087C36.1876 40.4067 37.1911 40.8029 38.1143 41.3446L39.348 43.0125C39.4979 43.8507 39.1928 43.1639 39.5177 43.9615C40.2487 45.7559 40.7439 47.56 39.9343 49.5083C38.7121 52.4496 36.0008 54.3587 33.2616 56.2084C31.7622 57.2209 30.4179 58.0937 28.5642 58.4252L26.9119 58.7208C26.4791 58.7982 26.2043 58.6324 25.8284 58.4557C25.4659 58.2853 25.1594 57.9091 24.8214 57.6926C23.7764 57.0235 22.8363 56.1895 21.9385 55.3721C14.4357 48.542 7.10898 41.3573 3.31966 32.1703C1.90608 28.7431 0.88233 24.5564 2.17522 20.8647C2.50913 19.9113 2.99892 18.962 3.58053 18.1023C4.11266 17.3157 4.7737 16.8932 5.52954 16.2878C6.28013 15.6866 7.38567 14.6394 8.40475 14.4224C9.00672 14.2942 10.0502 13.9546 10.6457 14.0789C12.2099 14.4054 13.4359 16.663 14.3326 17.6768C17.449 21.2001 20.2686 25.0385 23.0531 28.7808C24.2899 30.443 25.8299 32.0036 27.2633 33.5343C28.3687 34.7147 29.6096 35.8424 30.8525 36.9075C32.1917 38.055 33.6349 39.0672 35.2386 39.9087Z" fill="url(#paint0_linear_404_202)"/>
<path d="M61.7459 30.2622C62.2118 31.5721 62.9041 32.8985 62.9348 34.3091V56.5323L27.9537 62.6026C27.3768 59.1408 26.8527 55.6858 26.5705 52.1711C26.3684 49.654 26.0807 47.1514 25.8503 44.6376C25.7739 43.8047 25.4113 42.4594 25.8389 41.6654C26.068 41.2399 26.4912 41.1417 25.816 40.9166C25.0078 40.6472 24.2116 40.3271 23.4039 40.0707C20.285 39.0805 15.8132 36.5276 15.8132 32.7658C15.8132 31.6518 15.8883 30.7052 16.1676 29.6278C16.4812 28.4184 17.2073 27.394 17.7623 26.284C18.563 24.6827 19.6965 23.0916 20.7746 21.6542C21.4987 20.6887 21.2742 19.2182 21.5291 18.0532C22.1247 15.3304 22.7367 12.6598 23.7926 10.0681C23.9988 9.56198 24.1083 9.09248 24.5356 9.66229C24.8145 10.0342 25.096 10.4015 25.3816 10.7712C26.1591 11.7773 27.0144 12.7259 27.7937 13.732C28.0742 14.0942 28.5377 14.8347 29.0397 14.6065C29.3897 14.4474 29.8468 14.3531 30.2172 14.2521C31.3797 13.9351 32.5474 13.6498 33.721 13.3719C35.1938 13.0231 36.7202 12.7882 38.2194 12.5774C38.9452 12.4753 39.6445 12.3945 40.38 12.3945C40.6069 12.3945 40.9453 12.4816 41.1002 12.2687C41.2475 12.0661 41.2986 11.6543 41.4374 11.4113C41.671 11.0025 41.8047 10.5539 41.9976 10.1253C42.4185 9.18983 42.9147 8.29308 43.3351 7.35879C43.6583 6.64062 44.1831 5.77917 44.7469 5.21535C45.1896 4.77267 45.3598 5.13517 45.7529 5.37539C46.7007 5.95458 47.4921 7.11006 48.1707 7.96468C49.3457 9.44431 50.6765 10.8172 51.8746 12.2859C54.3429 15.3116 56.1399 18.7153 57.9734 22.1457C58.9047 23.8881 59.7981 25.6451 60.6713 27.4157C61.1185 28.3226 61.4075 29.3109 61.7459 30.2622Z" fill="#F4E2C8" stroke="#F4E2C8" stroke-width="3" stroke-linecap="round"/>
<path d="M27.4393 22.1017V23.7118" stroke="#371717" stroke-width="3" stroke-linecap="round"/>
<path d="M40.9617 19.8017V21.3455" stroke="#371717" stroke-width="3" stroke-linecap="round"/>
<path d="M30.1141 29.2675C30.8488 29.2675 31.3697 28.5636 31.7603 28.0329C32.5583 26.9488 33.2162 25.4934 33.5551 24.1861C33.6519 23.8127 33.4306 23.1922 33.5665 23.6774C33.9099 24.9037 34.4878 25.7953 35.5899 26.4325C36.0737 26.7121 36.5473 27.0107 37.0303 27.2898C37.2279 27.404 37.529 27.3975 37.7048 27.5413C38.077 27.8459 38.143 28.0239 38.3393 28.5473C38.5582 29.1311 38.6232 29.8837 38.6479 30.5022C38.6886 31.5201 38.845 32.5239 38.8594 33.543C38.8821 35.1541 38.9623 36.7594 38.9623 38.3729C38.9623 39.2081 38.5812 39.4884 37.7791 39.3332C37.1742 39.2161 36.7597 38.5613 36.493 38.0642C36.1312 37.3899 35.7031 36.7949 35.407 36.0808C35.0902 35.3168 34.9561 34.4117 34.744 33.6116C34.5086 32.7238 34.283 31.819 34.1267 30.9137C33.9873 30.107 33.9025 29.2958 33.7609 28.4902C33.6657 27.9491 33.7621 27.373 33.5608 26.8497C33.4978 26.686 33.4218 26.3106 33.6865 26.5754C34.2414 27.1302 34.6426 27.8871 35.0469 28.5531C36.0548 30.2131 36.645 31.7675 36.9046 33.6916C37.0066 34.4476 37.0826 35.201 37.1904 35.9551C37.2354 36.2705 37.3988 37.1591 37.2532 36.2695C37.0559 35.0637 36.649 33.9021 36.3901 32.7085C36.1791 31.7353 35.7928 30.765 35.67 29.782" stroke="#371717" stroke-width="3" stroke-linecap="round"/>
<path d="M8.71155 17.1785V17.4871" stroke="#371717" stroke-width="3" stroke-linecap="round"/>
<path d="M5.13989 19.8022V20.2138" stroke="#371717" stroke-width="3" stroke-linecap="round"/>
<path d="M3.80212 25.0493V25.1522" stroke="#371717" stroke-width="3" stroke-linecap="round"/>
<path d="M7.46571 23.3021C7.46571 23.9847 7.16805 25.2178 8.15296 25.2397C8.74976 25.2529 9.31743 24.9445 9.62682 24.4199C9.96406 23.8481 9.99943 23.374 9.99943 22.7142C9.99943 22.137 9.04466 22.1843 8.61664 22.1843C8.20704 22.1843 7.74026 23.9728 8.1364 23.9728" stroke="#371717" stroke-width="3" stroke-linecap="round"/>
<path d="M12.4448 19.5967V19.8025" stroke="#371717" stroke-width="3" stroke-linecap="round"/>
<path d="M38.6119 18.8162C39.3062 18.1798 41.2944 17.3249 42.0947 16.8447" stroke="#F4E2C8" stroke-width="3" stroke-linecap="round"/>
<path d="M31.0403 21.6542C29.2382 21.0562 27.7534 19.7967 25.9863 19.2103" stroke="#F4E2C8" stroke-width="3" stroke-linecap="round"/>
</g>
<defs>
<linearGradient id="paint0_linear_404_202" x1="16.7619" y1="12.8589" x2="25.0255" y2="59.0582" gradientUnits="userSpaceOnUse">
<stop offset="0.161458" stop-color="#F4E2C8"/>
<stop offset="1" stop-color="#DDA95D" stop-opacity="0.46"/>
</linearGradient>
<clipPath id="clip0_404_202">
<rect x="0.986328" y="0.995972" width="50" height="50" rx="2" fill="white"/>
</clipPath>
</defs>
</svg>
