<svg width="51" height="51" viewBox="0 0 51 51" fill="none" xmlns="http://www.w3.org/2000/svg">
<g clip-path="url(#clip0_404_186)">
<rect x="0.986328" y="0.995972" width="50" height="50" rx="2" fill="white"/>
<rect x="0.986328" y="0.995972" width="50" height="50" rx="2" fill="#497CFF"/>
<path d="M53.9267 29.9739C54.3926 31.2838 55.0849 32.6101 55.1156 34.0207V56.244L20.1345 62.3142C19.5575 58.8525 19.0335 55.3975 18.7513 51.8828C18.5492 49.3657 18.2615 46.8631 18.0311 44.3493C17.9547 43.5163 17.5921 42.1711 18.0196 41.3771C18.2488 40.9515 18.672 40.8533 17.9968 40.6283C17.1886 40.3589 16.3923 40.0387 15.5847 39.7823C12.4658 38.7922 7.99402 36.2393 7.99402 32.4775C7.99402 31.3634 8.06908 30.4168 8.3484 29.3395C8.66195 28.13 9.38813 27.1057 9.94313 25.9957C10.7438 24.3943 11.8773 22.8033 12.9554 21.3658C13.6795 20.4004 13.455 18.9299 13.7099 17.7648C14.3055 15.0421 14.9175 12.3714 15.9734 9.77978C16.1796 9.27365 16.2891 8.80415 16.7164 9.37396C16.9953 9.74583 17.2768 10.1132 17.5624 10.4828C18.3398 11.489 19.1951 12.4376 19.9745 13.4436C20.255 13.8058 20.7184 14.5464 21.2205 14.3182C21.5705 14.1591 22.0276 14.0648 22.398 13.9638C23.5605 13.6468 24.7282 13.3615 25.9018 13.0835C27.3746 12.7347 28.901 12.4999 30.4002 12.289C31.126 12.187 31.8253 12.1061 32.5608 12.1061C32.7877 12.1061 33.1261 12.1933 33.281 11.9804C33.4283 11.7778 33.4794 11.366 33.6182 11.123C33.8518 10.7142 33.9855 10.2656 34.1784 9.83694C34.5993 8.9015 35.0955 8.00475 35.5159 7.07046C35.8391 6.35229 36.3639 5.49084 36.9277 4.92702C37.3704 4.48434 37.5406 4.84684 37.9337 5.08706C38.8815 5.66625 39.6728 6.82173 40.3515 7.67635C41.5265 9.15598 42.8573 10.5289 44.0554 11.9975C46.5237 15.0233 48.3207 18.4269 50.1542 21.8574C51.0855 23.5998 51.9789 25.3568 52.8521 27.1274C53.2993 28.0343 53.5883 29.0225 53.9267 29.9739Z" fill="#F4E2C8" stroke="#F4E2C8" stroke-width="3" stroke-linecap="round"/>
<path d="M21.0499 28.3695C20.6131 28.8518 20.5504 29.9881 20.9967 30.4926C21.5794 31.1512 22.7165 31.1049 23.4945 31.0024C24.7701 30.8343 25.4865 30.204 26.2013 29.1612C26.3401 28.9588 26.4928 28.5852 26.508 28.3365C26.5128 28.2581 26.4877 27.6558 26.5285 27.6844C26.8571 27.9148 27.1623 28.3318 27.476 28.6053C27.8636 28.9432 28.3418 29.111 28.8545 29.1661C29.8712 29.2754 31.1244 29.2993 31.9943 28.6937C32.6938 28.2068 33.5856 26.5715 32.3471 26.2257" stroke="#371717" stroke-width="3" stroke-linecap="round"/>
<path d="M19.62 22.292V23.4237" stroke="#371717" stroke-width="3" stroke-linecap="round"/>
<path d="M33.1423 19.9254V21.0572" stroke="#371717" stroke-width="3" stroke-linecap="round"/>
</g>
<defs>
<clipPath id="clip0_404_186">
<rect x="0.986328" y="0.995972" width="50" height="50" rx="2" fill="white"/>
</clipPath>
</defs>
</svg>
